<?xml version="1.0" standalone="no"?><!DOCTYPE svg PUBLIC "-//W3C//DTD SVG 1.1//EN" "http://www.w3.org/Graphics/SVG/1.1/DTD/svg11.dtd"><svg t="1692238077471" class="icon" viewBox="0 0 1024 1024" version="1.1" xmlns="http://www.w3.org/2000/svg" p-id="3791" xmlns:xlink="http://www.w3.org/1999/xlink" width="48" height="48"><path d="M253.019 895.999H151.458a16.934 16.934 0 0 1-11.97-4.958l-33.854-33.854a16.926 16.926 0 0 1-4.959-11.97V743.656a16.93 16.93 0 0 1 4.96-11.969l320.938-320.937c6.61-6.61 17.328-6.61 23.939 0 6.609 6.61 6.609 17.327 0 23.937L134.529 750.667v87.539l23.939 23.939h87.54l40.865-40.865v-43.771c0-9.349 7.579-16.928 16.928-16.928h43.761l40.874-40.866v-26.842c0-9.349 7.578-16.928 16.927-16.928h26.843l23.939-23.937v-26.843c0-9.347 7.577-16.927 16.927-16.927h26.843l20.398-20.397c6.61-6.61 17.33-6.61 23.938 0 6.61 6.61 6.61 17.327 0 23.938l-25.356 25.356a16.928 16.928 0 0 1-11.97 4.958h-16.927v16.928c0 4.49-1.783 8.793-4.957 11.97l-33.854 33.852a16.928 16.928 0 0 1-11.97 4.96h-16.926v16.926c0 4.489-1.784 8.795-4.959 11.97l-50.79 50.781a16.927 16.927 0 0 1-11.967 4.958H320.73v33.854c0 4.49-1.784 8.794-4.959 11.97l-50.782 50.78A16.928 16.928 0 0 1 253.02 896z m423.18-304.687c-72.323 0-140.33-28.178-191.493-79.341-51.164-51.165-79.343-119.172-79.343-191.493s28.177-140.328 79.343-191.492c51.163-51.164 119.171-79.341 191.492-79.341 72.322 0 140.327 28.177 191.493 79.34 51.163 51.165 79.34 119.171 79.34 191.493s-28.177 140.327-79.341 191.493c-51.165 51.163-119.171 79.341-191.493 79.341z m0-507.813c-130.673 0-236.981 106.308-236.981 236.978s106.308 236.98 236.98 236.98 236.98-106.308 236.98-236.98S806.868 83.5 676.198 83.5zM795.893 457.1a16.927 16.927 0 0 1-11.969-4.958L544.532 212.75a16.924 16.924 0 0 1 0-23.939c35.16-35.16 81.92-54.524 131.665-54.524s96.505 19.364 131.666 54.525c72.601 72.602 72.601 190.732 0 263.332a16.927 16.927 0 0 1-11.969 4.957zM581.092 201.434l214.142 214.14c47.813-59.76 44.045-147.469-11.31-202.824-28.765-28.766-67.024-44.609-107.728-44.609-35.003 0-68.198 11.717-95.104 33.293z m-453.157 650.38a16.87 16.87 0 0 1-11.97-4.96c-6.609-6.61-6.609-17.326 0-23.937l282.206-282.205c6.61-6.612 17.329-6.612 23.94 0 6.608 6.61 6.608 17.327 0 23.938L139.902 846.855a16.868 16.868 0 0 1-11.969 4.958z" fill="#bfbfbf" p-id="3792"></path></svg>