<?xml version="1.0" standalone="no"?><!DOCTYPE svg PUBLIC "-//W3C//DTD SVG 1.1//EN" "http://www.w3.org/Graphics/SVG/1.1/DTD/svg11.dtd"><svg t="1687082468740" class="icon" viewBox="0 0 1024 1024" version="1.1" xmlns="http://www.w3.org/2000/svg" p-id="3291" xmlns:xlink="http://www.w3.org/1999/xlink" width="16" height="16"><path d="M500.512 468.288l313.76-313.76c13.312-13.28 34.944-13.248 48.32 0.128 13.472 13.472 13.44 35.008 0.128 48.32l-313.76 313.76 313.824 313.824c13.312 13.312 13.344 34.848-0.128 48.32-13.376 13.376-35.008 13.408-48.32 0.128l-313.824-313.824-313.824 313.824c-13.28 13.312-34.944 13.248-48.32-0.128-13.472-13.472-13.44-35.008-0.128-48.32l313.824-313.824-313.76-313.76c-13.312-13.312-13.344-34.848 0.128-48.32 13.376-13.376 35.008-13.408 48.32-0.128l313.76 313.76z" fill="#666666" p-id="3292"></path></svg>